<?xml version="1.0" encoding="UTF-8" ?>
<!DOCTYPE svg PUBLIC "-//W3C//DTD SVG 1.1//EN" "http://www.w3.org/Graphics/SVG/1.1/DTD/svg11.dtd">
<svg width="224pt" height="224pt" viewBox="0 0 224 224" version="1.1" xmlns="http://www.w3.org/2000/svg">
<g id="#f0b501ff">
<path fill="#f0b501" opacity="1.00" d=" M 0.00 0.00 L 0.26 0.00 C 0.19 0.06 0.06 0.19 0.00 0.26 L 0.00 0.00 Z" />
<path fill="#f0b501" opacity="1.00" d=" M 99.82 6.16 C 100.60 6.07 102.15 5.88 102.92 5.79 C 106.72 26.94 110.25 48.14 114.23 69.25 C 118.13 48.13 121.78 26.97 125.45 5.81 C 126.17 5.90 127.61 6.07 128.34 6.16 C 127.72 27.14 125.19 48.05 124.63 69.03 C 127.03 65.14 128.73 60.87 130.57 56.70 C 137.14 41.63 144.02 26.69 150.44 11.55 C 151.51 11.73 152.58 11.90 153.66 12.06 L 153.45 12.66 C 146.78 33.15 140.17 53.66 133.76 74.22 C 147.14 57.34 160.19 40.18 173.40 23.16 C 174.28 23.58 175.18 24.00 176.08 24.41 L 175.83 24.85 C 164.95 43.16 153.25 60.99 142.57 79.42 C 159.77 66.75 175.91 52.67 193.11 40.01 L 193.89 39.50 C 194.02 40.08 194.28 41.24 194.41 41.82 C 187.73 49.95 179.53 56.68 172.29 64.30 C 164.36 72.10 156.36 79.85 148.57 87.79 C 168.24 78.57 188.20 69.97 207.73 60.46 C 208.31 61.33 208.91 62.20 209.53 63.06 L 209.06 63.35 C 190.94 74.49 172.27 84.76 154.35 96.21 C 175.37 92.65 196.27 88.37 217.22 84.41 L 218.04 84.25 C 218.04 85.33 218.05 86.42 218.07 87.51 C 201.25 92.36 184.56 97.66 167.77 102.62 C 163.67 103.84 159.59 105.12 155.60 106.68 C 177.32 107.33 199.03 108.59 220.71 109.93 C 220.71 110.66 220.71 112.12 220.71 112.86 C 199.25 114.14 177.76 115.16 156.29 116.36 C 176.65 123.12 197.33 128.85 217.81 135.25 C 217.85 136.02 217.95 137.55 218.00 138.31 L 217.19 138.19 C 195.96 134.34 174.79 130.12 153.58 126.17 C 171.92 137.50 190.61 148.27 209.14 159.30 C 208.70 160.23 208.26 161.16 207.83 162.10 C 188.40 153.30 169.15 144.07 149.55 135.66 C 164.08 151.13 179.86 165.37 194.68 180.57 C 194.12 181.56 193.57 182.57 193.05 183.59 L 192.63 183.17 C 189.69 180.14 186.31 177.60 183.01 175.01 C 169.30 164.29 155.82 153.28 142.03 142.67 C 149.13 154.62 156.61 166.34 163.83 178.22 C 167.97 184.72 171.67 191.51 176.20 197.76 C 175.37 198.49 174.55 199.21 173.73 199.95 L 173.38 199.50 C 160.16 182.59 147.26 165.42 133.84 148.67 C 140.02 169.21 147.09 189.49 153.22 210.05 C 152.34 210.42 151.47 210.79 150.60 211.18 C 149.62 209.04 148.63 206.90 147.66 204.76 C 146.88 203.07 146.14 201.37 145.40 199.67 C 138.40 183.91 131.71 168.01 124.30 152.45 C 125.46 173.75 127.49 195.01 128.34 216.33 C 127.38 216.51 126.42 216.70 125.46 216.91 C 121.78 195.80 118.09 174.70 114.33 153.61 C 110.05 174.59 106.81 195.78 102.92 216.84 C 102.15 216.77 100.60 216.63 99.83 216.56 C 101.13 195.21 103.00 173.88 103.98 152.51 C 94.96 171.86 86.86 191.65 77.77 210.98 C 77.08 210.77 75.70 210.34 75.01 210.13 C 81.37 189.84 88.28 169.71 94.26 149.31 C 92.98 150.70 91.74 152.12 90.56 153.59 C 78.68 168.93 66.85 184.31 54.92 199.60 C 54.32 199.18 53.13 198.32 52.54 197.89 C 63.67 179.47 75.24 161.31 86.27 142.83 C 69.17 155.95 52.47 169.60 35.49 182.88 C 34.77 182.13 34.06 181.38 33.36 180.63 C 41.94 172.80 49.89 164.32 58.34 156.34 C 65.28 149.16 72.72 142.49 79.53 135.19 C 59.85 143.96 40.37 153.18 20.70 161.94 L 20.08 162.21 C 19.83 161.24 19.57 160.28 19.31 159.33 C 35.22 149.90 51.12 140.43 67.05 131.03 C 69.37 129.66 71.63 128.19 73.80 126.60 C 52.84 130.01 32.08 134.52 11.17 138.22 C 10.99 137.48 10.63 136.02 10.45 135.28 C 31.09 128.89 51.91 123.02 72.45 116.30 C 50.89 115.30 29.34 114.04 7.78 112.91 C 7.78 112.15 7.78 110.63 7.77 109.87 C 29.33 108.56 50.90 107.48 72.47 106.55 C 68.33 104.89 64.05 103.62 59.78 102.35 C 43.31 97.50 26.95 92.27 10.45 87.53 L 9.68 87.33 C 10.51 86.44 11.32 85.55 12.14 84.65 C 16.75 85.56 21.39 86.34 26.01 87.16 L 26.52 87.26 C 42.26 90.31 57.96 93.65 73.80 96.08 C 72.08 94.81 70.30 93.62 68.47 92.53 C 52.04 82.85 35.68 73.05 19.25 63.39 C 19.55 62.38 19.85 61.36 20.13 60.34 L 20.67 60.60 C 40.16 69.57 59.59 78.71 79.27 87.29 C 64.42 71.86 48.50 57.44 33.74 41.93 C 33.44 40.36 34.02 39.72 35.49 40.01 C 52.63 53.12 69.31 66.83 86.34 80.08 C 75.47 61.43 63.41 43.47 52.74 24.71 L 52.33 23.86 C 52.95 23.78 54.19 23.62 54.81 23.54 C 58.54 27.12 61.32 31.52 64.55 35.52 C 74.54 48.14 84.01 61.18 94.32 73.53 C 88.27 53.13 81.44 32.96 75.01 12.68 C 75.58 12.34 76.72 11.65 77.29 11.31 L 77.61 11.86 C 81.70 19.26 84.63 27.22 88.20 34.88 C 93.51 46.47 98.24 58.35 103.91 69.77 C 103.03 48.55 101.11 27.37 99.82 6.16 M 96.03 92.93 C 95.99 102.30 95.99 111.68 96.00 121.06 C 95.83 123.91 97.17 126.82 99.67 128.30 C 102.11 130.00 105.23 129.36 108.01 129.74 C 110.43 129.75 111.91 132.07 114.11 132.67 C 115.88 132.69 116.96 130.89 118.31 129.99 C 122.07 129.25 126.56 130.48 129.65 127.65 C 131.93 125.83 132.60 122.81 132.49 120.03 C 132.46 111.00 132.54 101.96 132.42 92.92 C 120.29 92.91 108.16 92.91 96.03 92.93 Z" />
</g>
<g id="#ffffffff">
<path fill="#ffffff" opacity="1.00" d=" M 112.51 9.34 C 115.28 7.90 118.97 10.78 118.15 13.86 C 117.69 16.91 113.22 18.24 111.30 15.69 C 109.36 13.81 110.20 10.49 112.51 9.34 Z" />
<path fill="#ffffff" opacity="1.00" d=" M 30.50 52.40 C 32.74 50.37 36.92 52.01 37.00 55.10 C 37.50 58.08 33.84 60.65 31.23 59.09 C 28.60 58.05 28.27 54.02 30.50 52.40 Z" />
<path fill="#ffffff" opacity="1.00" d=" M 193.31 52.06 C 195.96 50.32 199.96 52.72 199.29 55.94 C 199.41 59.65 193.68 60.77 192.01 57.71 C 191.02 55.91 191.26 53.05 193.31 52.06 Z" />
<path fill="#ffffff" opacity="1.00" d=" M 99.67 97.10 C 109.33 96.33 119.07 96.91 128.77 96.79 C 128.74 103.20 128.74 109.61 128.76 116.02 C 128.69 118.95 129.24 122.11 127.56 124.73 C 118.10 115.68 109.08 106.19 99.67 97.10 Z" />
<path fill="#ffffff" opacity="1.00" d=" M 112.34 206.15 C 115.22 204.45 119.28 207.60 118.05 210.82 C 117.48 213.37 114.09 214.59 112.00 213.05 C 109.48 211.56 109.69 207.40 112.34 206.15 Z" />
</g>
<g id="#000001ff">
<path fill="#000001" opacity="1.00" d=" M 102.92 5.79 C 110.40 5.01 117.98 4.96 125.45 5.81 C 121.78 26.97 118.13 48.13 114.23 69.25 C 110.25 48.14 106.72 26.94 102.92 5.79 M 112.51 9.34 C 110.20 10.49 109.36 13.81 111.30 15.69 C 113.22 18.24 117.69 16.91 118.15 13.86 C 118.97 10.78 115.28 7.90 112.51 9.34 Z" />
<path fill="#000001" opacity="1.00" d=" M 94.33 7.01 C 96.15 6.67 97.98 6.38 99.82 6.16 C 101.11 27.37 103.03 48.55 103.91 69.77 C 98.24 58.35 93.51 46.47 88.20 34.88 C 84.63 27.22 81.70 19.26 77.61 11.86 C 80.28 10.58 83.15 9.78 85.95 8.83 C 84.37 11.05 83.32 14.21 85.51 16.45 C 87.98 18.05 91.33 17.01 93.75 18.92 C 91.88 20.54 89.47 20.96 87.10 21.29 C 87.06 22.04 87.00 23.56 86.96 24.32 C 89.84 24.27 93.02 24.26 95.40 22.40 C 97.89 20.63 97.83 16.30 95.29 14.64 C 92.93 13.74 90.33 13.87 87.92 13.11 C 89.25 10.94 91.71 10.68 94.01 10.63 C 94.13 9.42 94.24 8.22 94.33 7.01 Z" />
<path fill="#000001" opacity="1.00" d=" M 128.34 6.16 C 131.20 6.51 134.03 7.02 136.91 7.30 C 135.13 8.75 132.46 10.20 132.96 12.93 C 132.94 16.73 138.82 16.64 138.56 20.51 C 136.35 20.31 134.23 19.65 132.15 18.93 C 131.67 19.92 131.19 20.90 130.72 21.89 C 133.48 22.99 136.49 24.66 139.54 23.71 C 142.23 23.11 143.60 19.88 142.81 17.38 C 141.26 15.12 138.49 14.14 136.80 11.99 C 139.03 10.98 141.27 11.95 143.33 12.85 C 144.08 11.78 144.84 10.72 145.61 9.68 C 147.21 10.32 148.83 10.93 150.44 11.55 C 144.02 26.69 137.14 41.63 130.57 56.70 C 128.73 60.87 127.03 65.14 124.63 69.03 C 125.19 48.05 127.72 27.14 128.34 6.16 Z" />
<path fill="#000001" opacity="1.00" d=" M 67.77 15.49 C 70.19 14.57 72.57 13.57 75.01 12.68 C 81.44 32.96 88.27 53.13 94.32 73.53 C 84.01 61.18 74.54 48.14 64.55 35.52 C 61.32 31.52 58.54 27.12 54.81 23.54 C 56.65 21.93 58.74 20.65 60.80 19.35 C 59.75 22.86 59.36 27.05 62.11 29.93 C 66.70 35.55 77.26 31.27 76.76 24.07 C 76.73 19.21 72.39 15.73 67.77 15.49 Z" />
<path fill="#000001" opacity="1.00" d=" M 133.76 74.22 C 140.17 53.66 146.78 33.15 153.45 12.66 C 155.95 13.60 158.38 14.70 160.90 15.58 C 156.18 15.49 151.68 19.08 151.72 24.00 C 151.08 30.88 160.76 35.34 165.64 30.55 C 169.02 27.65 169.10 22.75 167.15 19.01 C 169.22 20.41 171.37 21.69 173.40 23.16 C 160.19 40.18 147.14 57.34 133.76 74.22 Z" />
<path fill="#000001" opacity="1.00" d=" M 65.54 20.39 C 69.92 16.82 75.24 25.09 71.00 28.10 C 66.75 31.49 61.33 23.30 65.54 20.39 Z" />
<path fill="#000001" opacity="1.00" d=" M 158.42 20.18 C 160.33 18.58 163.54 19.94 164.17 22.22 C 165.30 25.55 161.38 30.57 157.81 28.31 C 154.45 26.57 155.85 21.93 158.42 20.18 Z" />
<path fill="#000001" opacity="1.00" d=" M 49.60 26.89 C 50.64 26.16 51.69 25.43 52.74 24.71 C 63.41 43.47 75.47 61.43 86.34 80.08 C 69.31 66.83 52.63 53.12 35.49 40.01 C 36.24 39.07 37.01 38.14 37.79 37.22 C 41.52 40.77 45.26 44.30 48.86 47.98 C 49.76 47.10 50.66 46.22 51.55 45.34 C 49.34 43.32 47.33 41.10 45.45 38.77 C 48.91 39.60 52.16 41.31 55.69 41.80 C 56.79 41.04 57.78 40.14 58.79 39.27 C 55.64 35.21 52.63 31.04 49.60 26.89 Z" />
<path fill="#000001" opacity="1.00" d=" M 175.83 24.85 C 177.61 26.02 179.33 27.28 181.08 28.50 C 177.99 32.64 174.49 36.46 171.40 40.60 C 174.03 42.77 176.49 45.14 179.07 47.38 C 179.90 46.58 180.71 45.76 181.49 44.92 C 180.14 43.23 178.21 42.00 177.13 40.11 C 179.47 37.13 182.07 34.36 184.59 31.53 C 187.52 34.27 190.45 37.01 193.11 40.01 C 175.91 52.67 159.77 66.75 142.57 79.42 C 153.25 60.99 164.95 43.16 175.83 24.85 Z" />
<path fill="#000001" opacity="1.00" d=" M 41.85 33.41 C 43.26 32.13 44.69 30.87 46.12 29.62 C 48.09 31.87 50.01 34.17 51.72 36.64 C 48.38 35.71 45.10 34.61 41.85 33.41 Z" />
<path fill="#000001" opacity="1.00" d=" M 20.67 60.60 C 24.26 53.90 28.58 47.53 33.74 41.93 C 48.50 57.44 64.42 71.86 79.27 87.29 C 59.59 78.71 40.16 69.57 20.67 60.60 M 30.50 52.40 C 28.27 54.02 28.60 58.05 31.23 59.09 C 33.84 60.65 37.50 58.08 37.00 55.10 C 36.92 52.01 32.74 50.37 30.50 52.40 Z" />
<path fill="#000001" opacity="1.00" d=" M 194.41 41.82 C 199.87 47.21 203.91 53.85 207.73 60.46 C 188.20 69.97 168.24 78.57 148.57 87.79 C 156.36 79.85 164.36 72.10 172.29 64.30 C 179.53 56.68 187.73 49.95 194.41 41.82 M 193.31 52.06 C 191.26 53.05 191.02 55.91 192.01 57.71 C 193.68 60.77 199.41 59.65 199.29 55.94 C 199.96 52.72 195.96 50.32 193.31 52.06 Z" />
<path fill="#000001" opacity="1.00" d=" M 19.25 63.39 C 35.68 73.05 52.04 82.85 68.47 92.53 C 70.30 93.62 72.08 94.81 73.80 96.08 C 57.96 93.65 42.26 90.31 26.52 87.26 C 26.86 85.78 27.31 84.32 27.62 82.83 C 26.87 81.87 25.91 81.11 25.03 80.29 C 25.54 78.92 26.04 77.55 26.53 76.17 C 27.89 75.92 29.26 75.71 30.63 75.51 C 31.12 74.29 31.62 73.07 32.12 71.85 C 26.62 71.46 21.10 71.61 15.60 71.23 C 16.65 68.54 17.85 65.91 19.25 63.39 Z" />
<path fill="#000001" opacity="1.00" d=" M 154.35 96.21 C 172.27 84.76 190.94 74.49 209.06 63.35 C 210.66 65.92 211.77 68.75 213.04 71.49 C 208.28 73.50 203.46 75.34 198.68 77.30 C 199.13 78.52 199.59 79.74 200.05 80.97 C 204.75 79.36 209.39 77.55 214.13 76.04 C 216.25 77.92 216.15 81.74 217.22 84.41 C 196.27 88.37 175.37 92.65 154.35 96.21 Z" />
<path fill="#000001" opacity="1.00" d=" M 18.28 75.02 C 19.97 75.09 21.66 75.18 23.35 75.29 C 23.01 76.31 22.66 77.33 22.30 78.34 C 20.93 77.27 19.58 76.18 18.28 75.02 Z" />
<path fill="#000001" opacity="1.00" d=" M 11.11 84.46 C 11.98 81.55 12.81 78.64 13.78 75.77 C 17.79 79.63 22.59 82.75 26.01 87.16 C 21.39 86.34 16.75 85.56 12.14 84.65 L 11.11 84.46 Z" />
<path fill="#000001" opacity="1.00" d=" M 10.45 87.53 C 26.95 92.27 43.31 97.50 59.78 102.35 C 64.05 103.62 68.33 104.89 72.47 106.55 C 50.90 107.48 29.33 108.56 7.77 109.87 C 7.73 108.26 7.78 106.65 7.92 105.05 C 13.02 105.39 18.12 105.59 23.22 105.97 C 23.35 104.71 23.48 103.44 23.60 102.18 C 21.43 101.90 19.27 101.63 17.14 101.14 C 19.03 99.21 21.59 98.40 24.13 97.76 C 24.37 96.29 24.59 94.83 24.79 93.36 C 22.27 94.23 19.78 95.26 17.51 96.69 C 16.50 95.30 15.71 93.35 13.76 93.13 C 11.64 92.42 10.20 94.48 8.82 95.70 C 9.29 92.96 9.79 90.23 10.45 87.53 Z" />
<path fill="#000001" opacity="1.00" d=" M 167.77 102.62 C 184.56 97.66 201.25 92.36 218.07 87.51 C 218.17 88.40 218.38 90.18 218.49 91.08 C 213.99 93.57 209.28 95.66 204.85 98.26 C 204.16 99.70 204.87 101.34 204.84 102.86 C 210.06 104.12 215.28 105.36 220.51 106.52 C 220.59 107.66 220.66 108.79 220.71 109.93 C 199.03 108.59 177.32 107.33 155.60 106.68 C 159.59 105.12 163.67 103.84 167.77 102.62 Z" />
<path fill="#000001" opacity="1.00" d=" M 96.03 92.93 C 108.16 92.91 120.29 92.91 132.42 92.92 C 132.54 101.96 132.46 111.00 132.49 120.03 C 132.60 122.81 131.93 125.83 129.65 127.65 C 126.56 130.48 122.07 129.25 118.31 129.99 C 116.96 130.89 115.88 132.69 114.11 132.67 C 111.91 132.07 110.43 129.75 108.01 129.74 C 105.23 129.36 102.11 130.00 99.67 128.30 C 97.17 126.82 95.83 123.91 96.00 121.06 C 95.99 111.68 95.99 102.30 96.03 92.93 M 99.67 97.10 C 99.55 104.75 99.51 112.41 99.59 120.06 C 99.53 122.36 100.28 125.67 103.08 125.86 C 106.86 125.94 110.60 126.33 114.14 127.74 C 118.66 126.21 123.41 125.90 128.12 125.25 L 127.56 124.73 C 129.24 122.11 128.69 118.95 128.76 116.02 C 128.74 109.61 128.74 103.20 128.77 96.79 C 119.07 96.91 109.33 96.33 99.67 97.10 Z" />
<path fill="#000001" opacity="1.00" d=" M 209.32 100.08 C 212.67 98.44 216.06 96.90 219.48 95.43 C 219.85 97.70 220.12 99.99 220.32 102.28 C 216.63 101.64 212.97 100.89 209.32 100.08 Z" />
<path fill="#000001" opacity="1.00" d=" M 10.65 100.52 C 11.42 99.19 12.22 97.87 13.06 96.58 C 14.30 97.73 16.24 99.96 14.05 101.27 C 12.90 101.08 11.77 100.84 10.65 100.52 Z" />
<path fill="#000001" opacity="1.00" d=" M 7.78 112.91 C 29.34 114.04 50.89 115.30 72.45 116.30 C 51.91 123.02 31.09 128.89 10.45 135.28 C 10.07 133.70 9.71 132.12 9.33 130.54 C 10.50 130.25 11.68 129.97 12.87 129.71 C 12.74 128.44 12.63 127.18 12.51 125.92 C 16.30 125.40 20.07 124.80 23.87 124.40 C 23.84 123.13 23.81 121.87 23.78 120.61 C 19.86 120.58 16.01 121.45 12.09 121.43 C 11.92 120.59 11.57 118.92 11.40 118.08 C 10.24 117.98 9.08 117.90 7.92 117.83 C 7.75 116.20 7.70 114.55 7.78 112.91 Z" />
<path fill="#000001" opacity="1.00" d=" M 156.29 116.36 C 177.76 115.16 199.25 114.14 220.71 112.86 C 220.71 115.91 219.91 119.07 220.94 122.03 C 219.31 119.70 216.64 116.82 213.52 118.35 C 210.57 119.29 211.27 124.67 207.86 124.33 C 207.03 122.28 208.04 120.18 208.44 118.17 C 207.70 117.82 206.22 117.12 205.48 116.77 C 204.40 119.76 203.16 123.18 204.68 126.26 C 206.04 129.20 211.12 129.91 212.64 126.74 C 213.80 125.39 213.90 122.65 215.91 122.38 C 217.61 124.09 216.17 126.40 215.86 128.36 C 216.96 128.91 218.05 129.45 219.16 129.98 C 218.75 131.74 218.33 133.51 217.81 135.25 C 197.33 128.85 176.65 123.12 156.29 116.36 Z" />
<path fill="#000001" opacity="1.00" d=" M 153.58 126.17 C 174.79 130.12 195.96 134.34 217.19 138.19 C 216.83 139.80 216.40 141.39 215.96 142.99 C 214.74 142.74 213.52 142.50 212.30 142.28 C 211.99 143.13 211.37 144.83 211.06 145.68 C 207.38 144.31 203.69 142.98 199.98 141.71 C 199.56 142.96 199.15 144.22 198.79 145.49 C 202.38 146.90 205.97 148.34 209.54 149.80 C 209.04 150.99 208.54 152.18 208.03 153.37 C 209.16 153.87 210.29 154.37 211.43 154.88 C 210.69 156.36 209.94 157.84 209.14 159.30 C 190.61 148.27 171.92 137.50 153.58 126.17 Z" />
<path fill="#000001" opacity="1.00" d=" M 11.17 138.22 C 32.08 134.52 52.84 130.01 73.80 126.60 C 71.63 128.19 69.37 129.66 67.05 131.03 C 51.12 140.43 35.22 149.90 19.31 159.33 C 17.95 157.01 16.86 154.55 15.73 152.12 C 17.79 152.62 20.19 153.69 22.10 152.18 C 24.93 150.29 23.41 146.51 23.89 143.74 C 27.11 142.88 26.88 146.99 27.49 149.04 C 28.64 148.98 29.79 148.91 30.94 148.84 C 30.38 145.64 29.93 141.75 26.81 139.96 C 24.55 138.82 20.80 139.47 20.05 142.23 C 19.64 144.70 20.23 147.30 19.14 149.65 C 17.66 147.99 17.12 145.79 15.89 144.01 C 14.89 144.03 13.89 144.09 12.89 144.18 C 12.27 142.20 11.70 140.22 11.17 138.22 Z" />
<path fill="#000001" opacity="1.00" d=" M 20.70 161.94 C 40.37 153.18 59.85 143.96 79.53 135.19 C 72.72 142.49 65.28 149.16 58.34 156.34 C 49.89 164.32 41.94 172.80 33.36 180.63 C 32.82 179.94 31.75 178.57 31.21 177.88 C 34.20 173.57 37.40 169.40 40.14 164.93 C 40.00 163.36 38.65 162.24 37.91 160.93 C 32.67 162.30 27.44 163.67 22.19 165.02 C 21.69 163.99 21.19 162.97 20.70 161.94 Z" />
<path fill="#000001" opacity="1.00" d=" M 149.55 135.66 C 169.15 144.07 188.40 153.30 207.83 162.10 C 206.37 164.74 204.80 167.32 203.13 169.83 C 198.93 167.04 194.69 164.30 190.57 161.39 C 189.56 162.32 188.70 163.39 187.95 164.54 C 192.16 167.56 196.40 170.54 200.53 173.68 C 198.71 176.08 196.91 178.53 194.68 180.57 C 179.86 165.37 164.08 151.13 149.55 135.66 Z" />
<path fill="#000001" opacity="1.00" d=" M 35.49 182.88 C 52.47 169.60 69.17 155.95 86.27 142.83 C 75.24 161.31 63.67 179.47 52.54 197.89 C 50.77 196.71 49.08 195.43 47.41 194.12 C 50.68 190.17 53.87 186.16 57.11 182.18 C 54.44 179.95 51.90 177.57 49.31 175.24 C 48.47 176.14 47.62 177.03 46.77 177.94 C 48.39 179.40 50.01 180.87 51.63 182.34 C 49.11 185.33 46.51 188.26 43.89 191.17 C 40.96 188.54 38.04 185.88 35.49 182.88 Z" />
<path fill="#000001" opacity="1.00" d=" M 142.03 142.67 C 155.82 153.28 169.30 164.29 183.01 175.01 C 186.31 177.60 189.69 180.14 192.63 183.17 C 191.71 184.15 190.80 185.13 189.89 186.12 C 187.81 184.71 185.52 185.03 183.37 186.08 C 181.06 183.29 178.50 180.72 176.12 177.99 C 175.12 178.83 174.12 179.66 173.12 180.49 C 175.47 183.55 178.00 186.47 180.60 189.33 C 179.73 190.22 178.86 191.10 177.98 191.97 C 178.55 193.10 179.13 194.23 179.65 195.40 C 178.79 195.99 177.07 197.17 176.20 197.76 C 171.67 191.51 167.97 184.72 163.83 178.22 C 156.61 166.34 149.13 154.62 142.03 142.67 Z" />
<path fill="#000001" opacity="1.00" d=" M 133.84 148.67 C 147.26 165.42 160.16 182.59 173.38 199.50 C 170.99 201.35 168.37 202.88 165.75 204.38 C 163.18 199.89 160.77 195.32 158.22 190.82 C 157.05 191.45 155.87 192.09 154.71 192.74 C 157.05 197.28 159.28 201.87 161.60 206.43 C 158.91 207.86 156.14 209.15 153.22 210.05 C 147.09 189.49 140.02 169.21 133.84 148.67 Z" />
<path fill="#000001" opacity="1.00" d=" M 90.56 153.59 C 91.74 152.12 92.98 150.70 94.26 149.31 C 88.28 169.71 81.37 189.84 75.01 210.13 C 73.07 209.37 71.16 208.55 69.24 207.75 C 71.26 202.99 73.80 198.46 75.64 193.62 C 72.55 192.23 69.61 190.58 66.70 188.87 C 66.06 189.92 65.42 190.96 64.79 192.01 C 66.67 193.12 68.56 194.19 70.47 195.25 C 68.80 198.78 66.86 202.17 65.14 205.67 C 61.64 203.82 58.22 201.80 54.92 199.60 C 66.85 184.31 78.68 168.93 90.56 153.59 Z" />
<path fill="#000001" opacity="1.00" d=" M 77.77 210.98 C 86.86 191.65 94.96 171.86 103.98 152.51 C 103.00 173.88 101.13 195.21 99.83 216.56 C 96.87 216.17 93.93 215.66 91.02 215.02 C 92.11 209.94 93.43 204.91 94.39 199.80 C 93.06 199.64 91.73 199.51 90.40 199.40 C 89.35 204.28 87.80 209.03 86.66 213.89 C 83.62 213.18 80.59 212.33 77.77 210.98 Z" />
<path fill="#000001" opacity="1.00" d=" M 124.30 152.45 C 131.71 168.01 138.40 183.91 145.40 199.67 C 144.13 201.62 141.96 202.28 139.84 202.89 C 139.40 201.56 138.96 200.23 138.53 198.90 C 135.42 199.76 132.26 200.41 129.11 201.10 C 129.37 202.22 129.64 203.34 129.91 204.47 C 132.30 204.25 135.07 202.90 136.91 205.16 C 134.98 205.97 132.93 206.46 130.90 206.96 C 130.99 207.74 131.16 209.29 131.25 210.07 C 133.45 210.23 137.62 207.40 137.64 211.09 C 135.61 211.79 133.48 212.13 131.38 212.47 C 131.50 213.75 131.63 215.02 131.75 216.31 C 130.61 216.33 129.48 216.34 128.34 216.33 C 127.49 195.01 125.46 173.75 124.30 152.45 Z" />
<path fill="#000001" opacity="1.00" d=" M 102.92 216.84 C 106.81 195.78 110.05 174.59 114.33 153.61 C 118.09 174.70 121.78 195.80 125.46 216.91 C 117.99 217.74 110.39 217.83 102.92 216.84 M 112.34 206.15 C 109.69 207.40 109.48 211.56 112.00 213.05 C 114.09 214.59 117.48 213.37 118.05 210.82 C 119.28 207.60 115.22 204.45 112.34 206.15 Z" />
<path fill="#000001" opacity="1.00" d=" M 24.53 168.66 C 28.01 167.62 31.47 166.50 35.02 165.72 C 33.00 168.74 30.71 171.57 28.35 174.32 C 27.07 172.44 25.80 170.55 24.53 168.66 Z" />
<path fill="#000001" opacity="1.00" d=" M 140.57 206.21 C 141.57 205.82 142.57 205.42 143.56 205.03 C 143.06 206.96 142.54 208.90 141.96 210.82 C 141.50 209.28 141.04 207.74 140.57 206.21 Z" />
<path fill="#000001" opacity="1.00" d=" M 145.14 212.27 C 145.89 209.74 146.75 207.24 147.66 204.76 C 148.63 206.90 149.62 209.04 150.60 211.18 C 148.86 211.37 146.58 213.76 145.14 212.27 Z" />
</g>
<g id="#bb023aff">
<path fill="#bb023a" opacity="1.00" d=" M 99.67 97.10 C 109.08 106.19 118.10 115.68 127.56 124.73 L 128.12 125.25 C 123.41 125.90 118.66 126.21 114.14 127.74 C 110.60 126.33 106.86 125.94 103.08 125.86 C 100.28 125.67 99.53 122.36 99.59 120.06 C 99.51 112.41 99.55 104.75 99.67 97.10 Z" />
</g>
</svg>
